Coordinates
version=1
nRows=5
nColumns=40
inDegrees=yes

Units are S.I. units (second, meters, Newtons, ...)
Angles are in degrees.

endheader
time	pelvis_tilt	pelvis_list	pelvis_rotation	pelvis_tx	pelvis_ty	pelvis_tz	hip_flexion_r	hip_adduction_r	hip_rotation_r	knee_angle_r	knee_angle_r_beta	ankle_angle_r	subtalar_angle_r	mtp_angle_r	hip_flexion_l	hip_adduction_l	hip_rotation_l	knee_angle_l	knee_angle_l_beta	ankle_angle_l	subtalar_angle_l	mtp_angle_l	lumbar_extension	lumbar_bending	lumbar_rotation	arm_flex_r	arm_add_r	arm_rot_r	elbow_flex_r	pro_sup_r	wrist_flex_r	wrist_dev_r	arm_flex_l	arm_add_l	arm_rot_l	elbow_flex_l	pro_sup_l	wrist_flex_l	wrist_dev_l
     37.40000000	     -6.04088121	     -4.19383751	     10.10177848	      1.11632151	      0.92379070	      0.47671890	      1.00292670	     -0.82331197	    -15.63452357	     15.75894316	     15.75894316	     16.75724258	      0.38182627	     -2.06359984	     25.48458108	     -5.02977792	      2.83477747	     24.53505133	     24.53505133	      7.79165427	    -11.08870539	      2.70812756	     -8.05298193	      3.29525934	      4.34212473	     54.44110808	    -16.83417354	     -8.27543674	     75.20205931	     44.97145389	      0.00000000	      0.00000000	     -6.39468589	    -12.14299522	     16.58071359	     33.49277498	     44.61229604	      0.00000000	      0.00000000
     37.42142857	     -6.10510306	     -4.24401030	      9.69720984	      1.11668182	      0.92408971	      0.47178350	      0.60894126	     -1.17819894	    -15.89178669	     15.48161912	     15.48161912	     16.35461256	      1.48245445	     -2.60233327	     25.37129072	     -4.80366582	      2.85220883	     25.04543314	     25.04543314	      8.47978899	    -11.76711382	      3.84477808	     -8.03945505	      3.41726218	      4.42723285	     54.55406130	    -16.82497021	     -8.11787013	     74.11514256	     45.01689638	      0.00000000	      0.00000000	     -5.54841419	    -12.36698642	     16.46839690	     33.11488660	     44.66989387	      0.00000000	      0.00000000
     37.44285714	     -6.22744401	     -4.33276407	      9.22530264	      1.11688609	      0.92416945	      0.46713534	      0.43918532	     -1.44312492	    -15.58578137	     15.44367537	     15.44367537	     16.11799153	      1.77122492	     -2.57009435	     25.27268510	     -4.70626625	      2.59358277	     25.40813634	     25.40813634	      8.79711796	    -12.17240875	      3.79487802	     -8.03835646	      3.54698577	      4.37189518	     54.31229116	    -16.56162273	     -8.01027196	     73.94461886	     45.01854485	      0.00000000	      0.00000000	     -4.81909228	    -12.71115446	     16.38114979	     33.24293772	     44.69299684	      0.00000000	      0.00000000
     37.46428571	     -6.23582067	     -4.41351852	      8.75798439	      1.11705440	      0.92426494	      0.46225374	      0.02461882	     -1.77428979	    -15.80393041	     15.18323484	     15.18323484	     15.80958539	      2.93495285	     -3.01196987	     25.21424390	     -4.52155325	      2.60334744	     26.10907576	     26.10907576	      9.48020708	    -12.93350887	      4.90020128	     -8.03637625	      3.75253161	      4.54438100	     54.20283018	    -16.50287560	     -8.00830254	     72.13246447	     45.08983539	      0.00000000	      0.00000000	     -3.75852471	    -12.84457547	     16.41668239	     32.74047177	     44.72970798	      0.00000000	      0.00000000
     37.48571429	     -6.27700945	     -4.53203932	      8.24938109	      1.11709274	      0.92413691	      0.45766924	     -0.18749965	     -2.01592137	    -15.48499207	     15.17937196	     15.17937196	     15.65161055	      3.27491061	     -3.01447876	     25.11836152	     -4.46918128	      2.34399755	     26.61125768	     26.61125768	      9.84260169	    -13.43979159	      4.88757073	     -8.07591993	      3.97369983	      4.48583383	     53.61709176	    -16.13855879	     -7.87856047	     71.71331168	     45.09771551	      0.00000000	      0.00000000	     -2.89097322	    -13.12717959	     16.35365966	     32.87919332	     44.75299808	      0.00000000	      0.00000000
